<?xml version="1.0" encoding="UTF-8" standalone="no" ?>
<!DOCTYPE svg PUBLIC "-//W3C//DTD SVG 1.1//EN" "http://www.w3.org/Graphics/SVG/1.1/DTD/svg11.dtd">
<svg xmlns="http://www.w3.org/2000/svg" xmlns:xlink="http://www.w3.org/1999/xlink" version="1.1" width="1080" height="1080" viewBox="0 0 1080 1080" xml:space="preserve">
<desc>Created with Fabric.js 5.2.4</desc>
<defs>
</defs>
<rect x="0" y="0" width="100%" height="100%" fill="transparent"></rect>
<g transform="matrix(1 0 0 1 540 540)" id="6dc403a7-eb53-40c6-b0c5-09f1d756456f"  >
<rect style="stroke: none; stroke-width: 1; stroke-dasharray: none; stroke-linecap: butt; stroke-dashoffset: 0; stroke-linejoin: miter; stroke-miterlimit: 4; fill: rgb(255,255,255); fill-rule: nonzero; opacity: 1; visibility: hidden;" vector-effect="non-scaling-stroke"  x="-540" y="-540" rx="0" ry="0" width="1080" height="1080" />
</g>
<g transform="matrix(1 0 0 1 540 540)" id="a9a976c2-2c2f-427c-b1cd-8e70d6eaddb9"  >
</g>
<g transform="matrix(12.24 0 0 12.24 540 540)" id="a88926a7-f9bb-45bc-aabb-fe7763a5519f"  >
<path style="stroke: rgb(0,0,0); stroke-width: 2; stroke-dasharray: none; stroke-linecap: butt; stroke-dashoffset: 0; stroke-linejoin: miter; stroke-miterlimit: 4; fill: rgb(0,0,0); fill-rule: nonzero; opacity: 1;" vector-effect="non-scaling-stroke"  transform=" translate(-50, -50)" d="M 50 92.875 C 26.358 92.875 7.125 73.642 7.125 50 C 7.125 26.358000000000004 26.358 7.125 50 7.125 C 73.642 7.125 92.875 26.358 92.875 50 C 92.875 73.642 73.642 92.875 50 92.875 z M 50 9.125 C 27.461 9.125 9.125 27.461 9.125 50 C 9.125 72.538 27.461 90.875 50 90.875 C 72.538 90.875 90.875 72.538 90.875 50 C 90.875 27.461 72.538 9.125 50 9.125 z" stroke-linecap="round" />
</g>
<g transform="matrix(2.22 0 0 2.22 540 540)" id="path0"  >
<path style="stroke: rgb(0,0,0); stroke-width: 0; stroke-dasharray: none; stroke-linecap: butt; stroke-dashoffset: 0; stroke-linejoin: miter; stroke-miterlimit: 4; fill: rgb(0,0,0); fill-rule: nonzero; opacity: 1;" vector-effect="non-scaling-stroke"  transform=" translate(-199.93, -199.98)" d="M 198.556 15.917 C 196.558 16.28 196.34 16.474 195.435 18.682 C 194.51 20.941 193.822 22.521 193.224 23.76 C 192.895 24.442 192.272 25.777 191.84 26.727 C 190.337 30.026 186.793 36.993 185.747 38.701 C 185.566 38.997 184.974 40.038 184.431 41.015 C 181.462 46.357 175.474 55.626 171.599 60.88 C 170.999 61.694 170.188 62.81 169.798 63.36 C 168.689 64.922 165.066 69.823 163.972 71.24 C 162.718 72.865 160.234 76.233 159.042 77.923 C 158.537 78.639 157.59 79.948 156.936 80.832 C 153.072 86.058 148.233 94.165 146.091 99.001 C 141.222 109.997 139.104 119.446 138.574 132.54 C 138.529 133.657 138.487 134.027 138.397 134.116 C 138.324 134.189 136.807 134.519 134.359 134.994 C 119.698 137.839 111.454 140.302 100 145.262 C 93.365 148.135 84.842 153.059 79.48 157.118 C 78.688 157.717 77.716 158.44 77.32 158.723 C 75.823 159.796 72.474 162.492 70.92 163.876 C 70.568 164.19 69.884 164.786 69.4 165.201 C 67.656 166.696 64.034 169.978 61.279 172.558 C 57.258 176.324 52.899 180.184 50.42 182.176 C 48.424 183.779 44.609 186.541 42.856 187.652 C 36.874 191.442 29.988 194.16 22.426 195.716 C 19.705 196.275 19.359 196.502 18.929 198.003 C 18.545 199.344 18.53 200.022 18.852 201.4 C 19.246 203.083 19.564 203.364 21.88 204.078 C 28.332 206.069 37.765 210.464 43.6 214.198 C 44.37 214.691 45.846 215.628 46.88 216.28 C 48.982 217.606 51.828 219.499 53.16 220.458 C 53.644 220.806 54.886 221.698 55.92 222.44 C 56.954 223.182 58.502 224.311 59.36 224.949 C 60.218 225.588 61.532 226.558 62.28 227.106 C 63.028 227.654 63.91 228.324 64.24 228.595 C 65.062 229.271 67.864 231.418 70.32 233.254 C 71.442 234.093 73.031 235.315 73.851 235.97 C 74.67 236.624 75.786 237.483 76.331 237.877 C 76.875 238.272 78.184 239.228 79.24 240.002 C 83.689 243.264 84.537 243.873 86.44 245.174 C 88.962 246.898 90.419 247.852 92.04 248.842 C 92.744 249.271 93.853 249.962 94.504 250.376 C 97.609 252.35 103.036 255.187 106.6 256.698 C 107.172 256.94 108.378 257.455 109.28 257.841 C 117.034 261.16 126.593 263.146 135.777 263.346 C 137.807 263.391 138.255 263.421 138.35 263.52 C 138.433 263.607 138.546 264.448 138.757 266.56 C 140.095 279.922 142.337 290.318 145.988 300.089 C 148.361 306.442 152.471 313.968 156.445 319.24 C 159.972 323.918 161.518 325.889 163.476 328.2 C 169.099 334.838 174.225 341.32 176.76 345 C 177.367 345.88 178.178 347.032 178.562 347.56 C 183.94 354.944 191.373 369.421 195.813 381.159 C 196.593 383.222 196.776 383.457 197.866 383.803 C 199.843 384.431 202.471 384.173 203.427 383.256 C 203.788 382.91 203.879 382.717 204.674 380.608 C 205.514 378.383 206.19 376.718 206.985 374.92 C 207.315 374.172 207.892 372.858 208.266 372 C 211.966 363.506 217.404 353.63 221.57 347.84 C 221.965 347.29 222.806 346.102 223.437 345.2 C 224.638 343.485 226.508 340.984 227.574 339.668 C 227.919 339.243 228.836 338.109 229.612 337.148 C 231.082 335.33 233.98 331.866 236.565 328.84 C 238.617 326.437 240.307 324.367 241.464 322.84 C 241.998 322.136 242.762 321.146 243.163 320.64 C 246.993 315.806 251.21 308.417 253.637 302.285 C 257.551 292.399 260.043 280.915 261.364 266.68 C 261.485 265.378 261.569 264.805 261.65 264.72 C 261.745 264.621 262.187 264.591 264.183 264.548 C 274.432 264.328 284.378 262.028 293.8 257.699 C 298.707 255.445 303.413 252.918 306.8 250.718 C 307.394 250.333 308.582 249.572 309.44 249.027 C 311.945 247.438 316.067 244.585 318.71 242.61 C 320.058 241.604 321.808 240.311 322.6 239.736 C 324.507 238.352 326.096 237.141 327.56 235.957 C 328.22 235.423 329.336 234.56 330.04 234.038 C 330.744 233.517 332.49 232.189 333.92 231.087 C 338.789 227.337 342.792 224.351 344.76 223 C 345.332 222.607 346.34 221.886 347 221.397 C 356.054 214.684 368.613 208.083 378.04 205.081 C 378.832 204.828 379.611 204.555 379.771 204.474 C 381.184 203.755 381.7 200.517 380.744 198.379 C 380.324 197.441 379.858 197.207 377.452 196.724 C 364.502 194.127 355.406 189.03 342.231 176.989 C 340.85 175.727 339.2 174.223 338.565 173.647 C 337.929 173.071 336.813 172.041 336.085 171.359 C 334.128 169.525 331.726 167.376 330.32 166.202 C 329.638 165.632 328.596 164.739 328.005 164.217 C 324.607 161.217 318.289 156.578 314.075 153.99 C 311.483 152.398 309.948 151.501 308.44 150.7 C 307.78 150.349 306.691 149.757 306.019 149.383 C 302.188 147.25 296.194 144.742 287.96 141.825 C 282.308 139.823 271.947 137.294 263.628 135.886 C 261.037 135.448 261.306 135.728 261.201 133.36 C 260.6 119.932 258.229 109.919 252.924 98.4 C 252.404 97.272 251.048 94.663 250.667 94.06 C 250.563 93.895 250.08 93.053 249.594 92.189 C 248.021 89.395 244.767 84.259 243.24 82.16 C 242.743 81.478 241.577 79.84 240.647 78.52 C 238.99 76.166 237.053 73.51 235.422 71.354 C 234.97 70.756 233.448 68.672 232.04 66.723 C 230.632 64.773 229.176 62.76 228.804 62.249 C 227.551 60.527 225.268 57.249 224.452 56 C 224.006 55.318 222.906 53.662 222.008 52.32 C 220.402 49.921 216.934 44.249 215.4 41.513 C 214.97 40.747 214.385 39.724 214.098 39.24 C 212.843 37.118 209.481 30.546 207.965 27.249 C 207.583 26.418 207.079 25.356 206.846 24.889 C 206.303 23.803 205.118 21.116 204.313 19.143 C 203.563 17.304 203.438 17.05 203.128 16.74 C 202.389 16.001 200.231 15.612 198.556 15.917 M 202.84 72.397 C 209.156 74.038 214.65 84.668 216.216 98.28 C 216.328 99.249 216.356 100.259 216.364 103.52 C 216.374 107.585 216.392 107.975 216.617 109 C 216.861 110.11 217.294 110.696 218.437 111.465 C 227.45 117.526 231.643 124.989 230.685 133.268 C 229.755 141.302 223.513 152.727 215.031 161.921 C 214.442 162.559 213.53 163.567 213.005 164.161 C 210.677 166.79 202.72 174.446 201.128 175.588 C 200.585 175.977 200.167 175.947 199.465 175.469 C 198.401 174.744 195.647 172.553 194.2 171.28 C 193.672 170.815 192.79 170.058 192.24 169.598 C 186.316 164.644 179.099 156.449 175.826 150.96 C 170.545 142.104 168.73 134.096 170.562 127.736 C 172.447 121.191 176.058 116.527 183.008 111.66 C 184.815 110.395 184.915 110.015 184.925 104.4 C 184.934 99.303 185.04 98.121 185.883 93.72 C 187.746 83.991 191.203 77.008 195.778 73.737 C 197.798 72.293 200.48 71.785 202.84 72.397 M 262.88 167.396 C 270.75 168.375 278.464 172.114 284.293 177.775 C 286.214 179.64 286.68 179.822 290.502 180.204 C 306.252 181.776 320.047 188.316 323.905 196.04 C 325.147 198.526 324.044 201.554 320.669 204.92 C 316.377 209.2 310.374 212.176 300.351 214.992 C 298.178 215.602 294.869 216.192 291.102 216.641 C 287.16 217.11 286.632 217.38 285.402 219.558 C 280.485 228.27 271.891 232.283 260.44 231.214 C 251.963 230.423 239.927 226.806 229.92 222.043 C 226.314 220.326 224.677 219.929 222.6 220.267 C 220.45 220.617 220.034 221.204 220.045 223.88 C 220.053 226.118 220.284 226.793 222.041 229.72 C 226.192 236.631 229.185 245.535 229.934 253.2 C 231.152 265.652 225.894 280.043 217.667 286.771 C 216.202 287.97 215.991 288.275 215.705 289.614 C 215.526 290.45 215.513 292.98 215.681 294.52 C 216.372 300.884 213.776 309.165 208.699 316.8 C 206.005 320.85 201.928 325.04 200.679 325.04 C 198.824 325.04 192.988 318.115 189.994 312.36 C 186.496 305.636 185.133 299.749 185.764 294.08 C 185.904 292.82 185.889 290.628 185.736 289.784 C 185.483 288.4 185.175 287.942 183.767 286.863 C 181.944 285.465 180.122 283.402 178.26 280.628 C 172.088 271.431 169.897 259.369 172.285 247.743 C 173.063 243.959 174.183 240.435 175.854 236.52 C 176.999 233.838 177.198 233.454 180.029 228.48 C 181.335 226.184 181.678 223.886 181.028 221.781 C 180.657 220.58 179.61 220.163 177.219 220.264 C 175.211 220.349 174.673 220.519 171.118 222.203 C 164.239 225.46 153.978 228.956 147.44 230.269 C 140.013 231.762 133.483 231.719 128.64 230.147 C 123.181 228.374 118.9 224.843 115.997 219.72 C 114.674 217.385 114.163 217.123 110 216.642 C 93.424 214.726 78.789 207.013 77.07 199.288 C 75.874 193.913 85.317 186.485 98.08 182.76 C 102.416 181.495 105.821 180.842 110.6 180.36 C 114.609 179.956 115.046 179.79 117.011 177.917 C 121.128 173.991 126.826 170.546 131.939 168.889 C 138.575 166.738 146.173 166.739 153.76 168.891 C 158.834 170.331 165.806 173.494 169.88 176.206 C 174.216 179.092 178.378 183.383 182.017 188.72 C 183.996 191.623 186.629 196.283 188.12 199.522 C 191.81 207.541 194.589 215.704 196.478 224.079 C 196.988 226.338 197.176 226.755 197.863 227.151 C 199.295 227.977 201.492 228.044 203.124 227.312 C 204.085 226.88 204.327 226.433 204.839 224.135 C 205.992 218.966 207.786 213.062 209.997 207.16 C 215.809 191.644 224.155 180.206 233.54 174.895 C 240.966 170.692 249.108 167.902 255.52 167.362 C 256.07 167.316 256.646 167.264 256.8 167.247 C 257.484 167.169 261.937 167.279 262.88 167.396" stroke-linecap="round" />
</g>
</svg>